<svg xmlns="http://www.w3.org/2000/svg" xmlns:xlink="http://www.w3.org/1999/xlink" width="163" zoomAndPan="magnify" viewBox="0 0 122.25 96.75" height="129" preserveAspectRatio="xMidYMid meet" version="1.0"><defs><clipPath id="53aecdca3c"><path d="M 39.261719 60.972656 L 74.613281 60.972656 L 74.613281 92.925781 L 39.261719 92.925781 Z M 39.261719 60.972656 " clip-rule="nonzero"/></clipPath><clipPath id="f16468ee36"><path d="M 48.15625 63.457031 C 58.515625 61.070312 61.496094 61.667969 63.734375 62.636719 C 65.671875 63.457031 67.3125 64.875 68.652344 66.214844 C 69.847656 67.558594 70.667969 68.898438 71.5625 70.613281 C 72.679688 72.625 74.171875 75.457031 74.46875 77.695312 C 74.765625 79.632812 74.542969 81.347656 73.871094 83.136719 C 73.050781 85.371094 71.113281 88.207031 69.324219 89.769531 C 67.910156 91.039062 66.34375 91.710938 64.554688 92.230469 C 62.390625 92.828125 59.707031 92.976562 57.25 92.902344 C 54.789062 92.828125 51.957031 92.453125 49.867188 91.632812 C 48.15625 90.964844 46.8125 89.921875 45.546875 88.726562 C 44.203125 87.535156 42.9375 85.96875 42.042969 84.402344 C 41.074219 82.765625 40.328125 80.902344 39.878906 79.035156 C 39.433594 77.023438 39.210938 74.789062 39.433594 72.625 C 39.582031 70.464844 40.03125 68.152344 41 66.214844 C 41.894531 64.351562 43.757812 61.519531 44.949219 61.070312 C 45.621094 60.847656 46.367188 61.148438 46.8125 61.519531 C 47.183594 61.890625 47.484375 62.785156 47.484375 63.234375 C 47.410156 63.679688 47.183594 64.128906 46.886719 64.425781 C 46.515625 64.726562 45.621094 65.023438 45.097656 64.949219 C 44.652344 64.949219 44.277344 64.726562 43.980469 64.351562 C 43.683594 63.90625 43.382812 63.085938 43.53125 62.5625 C 43.757812 61.964844 44.800781 61.148438 45.398438 60.996094 C 45.84375 60.921875 46.289062 61.148438 46.664062 61.371094 C 47.035156 61.742188 47.484375 62.339844 47.484375 63.085938 C 47.484375 64.574219 44.425781 67.78125 43.757812 70.089844 C 43.234375 71.957031 43.308594 73.746094 43.457031 75.457031 C 43.53125 77.097656 43.832031 78.664062 44.503906 80.230469 C 45.246094 82.019531 46.441406 84.105469 48.003906 85.523438 C 49.644531 86.9375 51.882812 88.132812 54.191406 88.652344 C 56.875 89.25 60.679688 89.175781 63.210938 88.355469 C 65.375 87.683594 67.3125 86.191406 68.503906 84.703125 C 69.621094 83.433594 70.292969 81.71875 70.441406 80.15625 C 70.59375 78.664062 70.144531 77.324219 69.546875 75.683594 C 68.652344 73.445312 66.640625 69.71875 64.851562 68.078125 C 63.585938 66.960938 62.167969 66.589844 60.679688 66.066406 C 59.261719 65.621094 57.769531 65.097656 56.054688 65.171875 C 53.820312 65.246094 49.945312 67.484375 48.453125 67.109375 C 47.632812 66.886719 46.960938 66.214844 46.886719 65.621094 C 46.8125 65.023438 48.15625 63.457031 48.15625 63.457031 " clip-rule="nonzero"/></clipPath><clipPath id="87df4b07f6"><path d="M 72.171875 56.539062 L 111.855469 56.539062 L 111.855469 91.324219 L 72.171875 91.324219 Z M 72.171875 56.539062 " clip-rule="nonzero"/></clipPath><clipPath id="f4f639a443"><path d="M 93.179688 91.1875 C 84.53125 90.589844 83.265625 90.144531 81.625 88.949219 C 79.089844 87.085938 74.839844 82.613281 73.425781 79.707031 C 72.457031 77.695312 72.15625 75.980469 72.304688 73.894531 C 72.457031 71.359375 73.722656 67.78125 74.988281 65.621094 C 76.035156 63.90625 77.226562 62.785156 78.867188 61.667969 C 81.101562 60.101562 84.53125 58.6875 87.511719 57.867188 C 90.421875 57.046875 93.773438 56.597656 96.457031 56.675781 C 98.695312 56.824219 101.003906 57.34375 102.570312 57.941406 C 103.6875 58.386719 104.359375 58.761719 105.328125 59.582031 C 106.597656 60.625 108.308594 62.488281 109.355469 64.203125 C 110.324219 65.84375 111.070312 67.929688 111.441406 69.421875 C 111.738281 70.539062 111.8125 71.136719 111.8125 72.253906 C 111.738281 73.96875 111.144531 77.023438 110.621094 78.664062 C 110.25 79.78125 109.949219 80.453125 109.28125 81.421875 C 108.308594 82.839844 106.746094 84.703125 104.882812 86.117188 C 102.71875 87.832031 98.992188 89.769531 96.683594 90.367188 C 95.117188 90.816406 93.625 90.964844 92.582031 90.664062 C 91.761719 90.367188 90.867188 89.621094 90.792969 89.027344 C 90.644531 88.429688 91.316406 87.160156 91.835938 86.863281 C 92.359375 86.566406 93.253906 86.640625 93.699219 86.9375 C 94.222656 87.160156 94.667969 87.980469 94.742188 88.503906 C 94.742188 89.027344 94.445312 89.921875 94 90.21875 C 93.476562 90.589844 92.132812 90.515625 91.539062 90.292969 C 91.164062 90.070312 90.941406 89.621094 90.792969 89.25 C 90.71875 88.726562 90.71875 87.832031 91.164062 87.386719 C 91.984375 86.566406 94.894531 86.863281 96.53125 86.265625 C 98.246094 85.746094 99.8125 85.074219 101.304688 83.882812 C 103.09375 82.539062 105.328125 80.304688 106.371094 78.441406 C 107.265625 76.949219 107.640625 75.234375 107.789062 73.746094 C 107.9375 72.253906 107.789062 70.835938 107.339844 69.496094 C 106.96875 68.003906 106.222656 66.4375 105.328125 65.246094 C 104.433594 64.054688 103.464844 62.859375 102.050781 62.117188 C 100.261719 61.222656 97.277344 60.847656 95.117188 60.773438 C 93.253906 60.699219 91.6875 60.996094 89.824219 61.445312 C 87.8125 61.964844 85.351562 62.710938 83.5625 63.679688 C 81.921875 64.5 80.28125 65.246094 79.164062 66.589844 C 77.824219 68.226562 76.703125 70.910156 76.40625 72.925781 C 76.183594 74.640625 76.332031 76.351562 76.851562 77.769531 C 77.375 79.035156 78.34375 79.929688 79.386719 81.199219 C 80.730469 82.839844 82.371094 85.296875 84.605469 86.417969 C 87.140625 87.757812 93.105469 86.9375 94.371094 88.054688 C 94.894531 88.578125 95.042969 89.472656 94.816406 89.996094 C 94.667969 90.515625 93.179688 91.1875 93.179688 91.1875 " clip-rule="nonzero"/></clipPath><clipPath id="6ae675cb24"><path d="M 22.855469 71.554688 L 42.835938 71.554688 L 42.835938 78.246094 L 22.855469 78.246094 Z M 22.855469 71.554688 " clip-rule="nonzero"/></clipPath><clipPath id="4053f59736"><path d="M 40.179688 78.21875 C 23.40625 75.085938 23.257812 74.863281 23.109375 74.488281 C 22.882812 73.96875 22.808594 73.074219 23.183594 72.550781 C 23.554688 72.03125 24.75 71.507812 25.417969 71.65625 C 25.941406 71.730469 26.613281 72.402344 26.761719 72.925781 C 26.984375 73.519531 26.613281 74.863281 26.015625 75.234375 C 25.492188 75.609375 24.152344 75.535156 23.628906 75.160156 C 23.183594 74.789062 22.882812 73.894531 22.882812 73.371094 C 22.882812 73 23.109375 72.550781 23.40625 72.253906 C 23.777344 71.878906 24.300781 71.65625 25.195312 71.582031 C 27.730469 71.359375 37.421875 73.222656 40.179688 74.117188 C 41.222656 74.414062 41.820312 74.714844 42.265625 75.160156 C 42.636719 75.535156 42.789062 75.980469 42.789062 76.429688 C 42.714844 76.949219 42.414062 77.695312 41.96875 77.992188 C 41.519531 78.292969 40.179688 78.21875 40.179688 78.21875 " clip-rule="nonzero"/></clipPath><clipPath id="24612eb9e5"><path d="M 108.078125 70 L 114.726562 70 L 114.726562 76.449219 L 108.078125 76.449219 Z M 108.078125 70 " clip-rule="nonzero"/></clipPath><clipPath id="6684129d32"><path d="M 108.609375 73.445312 C 112.78125 69.941406 113.753906 70.167969 114.199219 70.539062 C 114.570312 70.910156 114.796875 71.730469 114.648438 72.179688 C 114.496094 72.773438 113.527344 73.519531 112.933594 73.59375 C 112.484375 73.667969 111.664062 73.371094 111.441406 72.925781 C 111.070312 72.402344 111.070312 71.136719 111.441406 70.6875 C 111.738281 70.242188 113.007812 69.867188 113.527344 70.089844 C 114.050781 70.316406 114.722656 71.285156 114.648438 72.03125 C 114.570312 73.148438 112.335938 75.535156 111.144531 76.128906 C 110.324219 76.503906 109.203125 76.503906 108.757812 76.203125 C 108.308594 75.90625 108.085938 75.085938 108.085938 74.640625 C 108.085938 74.191406 108.609375 73.445312 108.609375 73.445312 " clip-rule="nonzero"/></clipPath><clipPath id="99f36053b7"><path d="M 100.71875 4 L 117 4 L 117 36.445312 L 100.71875 36.445312 Z M 100.71875 4 " clip-rule="nonzero"/></clipPath><clipPath id="b88e2aab20"><path d="M 101.378906 33.640625 C 108.90625 22.757812 111.21875 15.378906 112.261719 11.351562 C 112.933594 8.816406 112.484375 6.285156 113.378906 5.164062 C 113.976562 4.417969 115.242188 3.898438 115.839844 4.195312 C 116.359375 4.417969 116.957031 6.132812 116.660156 6.65625 C 116.359375 7.253906 114.648438 7.625 114.125 7.402344 C 113.601562 7.179688 113.230469 6.433594 113.230469 5.910156 C 113.230469 5.390625 113.527344 4.644531 113.976562 4.34375 C 114.347656 4.046875 115.167969 3.898438 115.617188 4.121094 C 116.136719 4.269531 116.585938 4.71875 116.808594 5.3125 C 117.179688 6.433594 116.808594 8.222656 116.285156 10.382812 C 115.464844 14.257812 112.558594 22.460938 110.621094 26.632812 C 109.28125 29.539062 107.789062 31.851562 106.445312 33.566406 C 105.476562 34.683594 104.582031 35.800781 103.6875 36.175781 C 102.945312 36.472656 101.824219 36.472656 101.378906 36.175781 C 101.078125 36.027344 100.855469 35.503906 100.78125 35.132812 C 100.78125 34.683594 101.378906 33.640625 101.378906 33.640625 " clip-rule="nonzero"/></clipPath><clipPath id="87cb552780"><path d="M 103.90625 3.144531 L 117.96875 3.144531 L 117.96875 56.589844 L 103.90625 56.589844 Z M 103.90625 3.144531 " clip-rule="nonzero"/></clipPath><clipPath id="9baddb63ab"><path d="M 116.734375 4.417969 C 118.671875 20.671875 118 26.632812 116.808594 32.296875 C 115.464844 38.410156 112.933594 46.910156 110.695312 51.082031 C 109.429688 53.46875 107.714844 55.480469 106.597656 56.152344 C 106.074219 56.523438 105.550781 56.597656 105.105469 56.523438 C 104.65625 56.375 104.136719 55.929688 103.988281 55.480469 C 103.839844 55.109375 103.988281 54.363281 104.210938 53.992188 C 104.507812 53.691406 105.105469 53.320312 105.550781 53.394531 C 106 53.394531 106.671875 53.765625 106.894531 54.140625 C 107.117188 54.511719 107.265625 55.257812 106.96875 55.628906 C 106.671875 56.078125 105.328125 56.597656 104.808594 56.375 C 104.359375 56.226562 103.914062 55.40625 103.914062 54.660156 C 104.0625 53.097656 107.414062 50.636719 108.832031 47.65625 C 110.769531 43.554688 112.558594 37.144531 113.601562 31.777344 C 114.570312 26.484375 115.167969 20.59375 115.019531 15.75 C 114.871094 11.800781 112.78125 6.804688 113.304688 4.792969 C 113.601562 3.898438 114.273438 3.226562 114.871094 3.152344 C 115.390625 3.078125 116.734375 4.417969 116.734375 4.417969 " clip-rule="nonzero"/></clipPath><clipPath id="e49e8ca0e7"><path d="M 2.960938 20.605469 L 27.613281 20.605469 L 27.613281 54.5 L 2.960938 54.5 Z M 2.960938 20.605469 " clip-rule="nonzero"/></clipPath><clipPath id="739de0d79e"><path d="M 25.34375 54.4375 C 15.953125 48.398438 12.152344 42.808594 9.839844 39.304688 C 8.125 36.621094 7.007812 34.460938 5.890625 31.777344 C 4.695312 28.945312 3.054688 24.246094 2.980469 22.535156 C 2.980469 21.863281 3.054688 21.414062 3.355469 21.117188 C 3.652344 20.820312 4.695312 20.59375 5.144531 20.746094 C 5.515625 20.894531 5.890625 21.488281 5.964844 21.863281 C 6.039062 22.308594 5.8125 22.980469 5.515625 23.203125 C 5.21875 23.503906 4.546875 23.726562 4.101562 23.578125 C 3.726562 23.503906 3.207031 23.054688 3.054688 22.683594 C 2.90625 22.234375 3.128906 21.191406 3.578125 20.894531 C 4.023438 20.59375 5.070312 20.746094 5.738281 21.265625 C 7.082031 22.460938 7.15625 27.378906 8.574219 30.507812 C 10.0625 33.9375 12.300781 37.664062 14.683594 40.871094 C 16.996094 43.925781 20.050781 47.429688 22.4375 49.292969 C 24.152344 50.636719 26.761719 50.859375 27.355469 51.976562 C 27.730469 52.574219 27.582031 53.691406 27.207031 54.140625 C 26.835938 54.511719 25.34375 54.4375 25.34375 54.4375 " clip-rule="nonzero"/></clipPath><clipPath id="530b153a79"><path d="M 2.804688 21.152344 L 32.457031 21.152344 L 32.457031 42.625 L 2.804688 42.625 Z M 2.804688 21.152344 " clip-rule="nonzero"/></clipPath><clipPath id="a9229d472a"><path d="M 5.515625 21.265625 C 25.941406 36.546875 31.160156 37.964844 32.128906 39.679688 C 32.5 40.421875 32.351562 41.46875 31.980469 41.914062 C 31.53125 42.363281 30.265625 42.585938 29.742188 42.363281 C 29.222656 42.136719 28.773438 41.394531 28.699219 40.945312 C 28.625 40.574219 28.699219 40.125 28.921875 39.753906 C 29.070312 39.453125 29.445312 39.082031 29.816406 38.933594 C 30.265625 38.785156 31.085938 38.785156 31.53125 39.082031 C 32.054688 39.453125 32.5 40.648438 32.351562 41.167969 C 32.277344 41.691406 31.605469 42.289062 31.160156 42.4375 C 30.785156 42.585938 30.414062 42.585938 29.890625 42.4375 C 28.773438 42.136719 26.6875 41.167969 24.523438 39.902344 C 21.171875 37.964844 15.578125 34.085938 11.777344 31.179688 C 8.574219 28.644531 3.949219 25.589844 3.128906 23.652344 C 2.757812 22.832031 2.832031 21.789062 3.28125 21.414062 C 3.652344 20.96875 5.515625 21.265625 5.515625 21.265625 " clip-rule="nonzero"/></clipPath></defs><g clip-path="url(#53aecdca3c)"><g clip-path="url(#f16468ee36)"><path fill="#ffa629" d="M 36.453125 58.015625 L 77.574219 58.015625 L 77.574219 95.882812 L 36.453125 95.882812 Z M 36.453125 58.015625 " fill-opacity="1" fill-rule="nonzero"/></g></g><g clip-path="url(#87df4b07f6)"><g clip-path="url(#f4f639a443)"><path fill="#ffa629" d="M 69.324219 53.691406 L 114.859375 53.691406 L 114.859375 94.167969 L 69.324219 94.167969 Z M 69.324219 53.691406 " fill-opacity="1" fill-rule="nonzero"/></g></g><g clip-path="url(#6ae675cb24)"><g clip-path="url(#4053f59736)"><path fill="#ffa629" d="M 19.902344 68.601562 L 45.789062 68.601562 L 45.789062 81.199219 L 19.902344 81.199219 Z M 19.902344 68.601562 " fill-opacity="1" fill-rule="nonzero"/></g></g><g clip-path="url(#24612eb9e5)"><g clip-path="url(#6684129d32)"><path fill="#ffa629" d="M 105.105469 67.109375 L 117.699219 67.109375 L 117.699219 79.1875 L 105.105469 79.1875 Z M 105.105469 67.109375 " fill-opacity="1" fill-rule="nonzero"/></g></g><g clip-path="url(#99f36053b7)"><g clip-path="url(#b88e2aab20)"><path fill="#ff6c7c" d="M 97.800781 1.140625 L 119.789062 1.140625 L 119.789062 39.191406 L 97.800781 39.191406 Z M 97.800781 1.140625 " fill-opacity="1" fill-rule="nonzero"/></g></g><g clip-path="url(#87cb552780)"><g clip-path="url(#9baddb63ab)"><path fill="#ff6c7c" d="M 100.929688 0.171875 L 121.503906 0.171875 L 121.503906 59.5625 L 100.929688 59.5625 Z M 100.929688 0.171875 " fill-opacity="1" fill-rule="nonzero"/></g></g><g clip-path="url(#e49e8ca0e7)"><g clip-path="url(#739de0d79e)"><path fill="#ff6c7c" d="M 0 17.761719 L 30.339844 17.761719 L 30.339844 57.464844 L 0 57.464844 Z M 0 17.761719 " fill-opacity="1" fill-rule="nonzero"/></g></g><g clip-path="url(#530b153a79)"><g clip-path="url(#a9229d472a)"><path fill="#ff6c7c" d="M 0.148438 18.285156 L 35.433594 18.285156 L 35.433594 45.492188 L 0.148438 45.492188 Z M 0.148438 18.285156 " fill-opacity="1" fill-rule="nonzero"/></g></g></svg>